<svg width="141" height="79" viewBox="0 0 141 79" fill="none" xmlns="http://www.w3.org/2000/svg">
<mask id="mask0_3_153" style="mask-type:luminance" maskUnits="userSpaceOnUse" x="77" y="0" width="64" height="79">
<path d="M141 0H77.1754V79H141V0Z" fill="white"/>
</mask>
<g mask="url(#mask0_3_153)">
<path d="M110.746 0H77.1754V4.63416C77.1754 23.4833 81.5459 36.6906 90.1584 43.9082C95.7357 48.577 102.813 50.3611 110.64 49.0753L110.933 49.0174C120.506 46.8162 125.287 38.1502 125.064 30.7358C124.83 22.8924 119.522 16.9376 111.531 15.5823L111.132 15.5126H93.2516V33.6204C90.1113 29.3223 87.2172 21.9309 86.643 9.26833H110.418C125.064 9.97481 131.615 21.5718 131.615 32.7632C131.615 43.9546 123.822 55.4472 106.703 55.4472C93.4859 55.4472 85.2839 47.3837 85.2252 47.3258C79.6243 41.5796 77.4216 37.0497 77.1754 35.3466C77.1754 36.9223 77.2106 38.162 77.2575 39.1582L77.1754 39.0772V78.9885H102.625V64.5069C103.938 64.6343 105.309 64.7038 106.715 64.7038C129.224 64.7038 141 48.6234 141 32.7516C141 14.2732 128.556 0.811067 110.746 0ZM102.625 24.7809H110.312C114.859 25.7076 115.644 29.0559 115.702 31.0021C115.808 34.6168 113.523 38.8339 108.953 39.9577C106.692 40.3168 104.582 40.2935 102.625 39.9113V24.7809ZM93.2516 69.7317H86.5493V59.56C88.4708 60.6025 90.709 61.6338 93.2516 62.5025V69.7317Z" fill="white"/>
</g>
<mask id="mask1_3_153" style="mask-type:luminance" maskUnits="userSpaceOnUse" x="0" y="0" width="77" height="79">
<path d="M76.7753 0H0V79H76.7753V0Z" fill="white"/>
</mask>
<g mask="url(#mask1_3_153)">
<path d="M56.0837 28.137C53.8607 27.6532 49.9441 27.6124 48.4813 27.6124H25.8148C24.7902 27.5713 23.964 26.7269 23.964 25.7021C23.964 24.6772 24.8315 23.7755 25.8976 23.7755H52.8113L76.7753 0H25.8976C11.6185 0 0 11.527 0 25.7021C0 32.7528 2.8344 39.3279 7.95758 44.214C12.8084 48.838 19.1793 51.396 25.8976 51.396H50.8777C51.9438 51.396 52.8113 52.2485 52.8113 53.3061C52.8113 54.3636 51.9438 55.2245 50.8777 55.2245H23.964L0 79H50.8777C65.1568 79 76.7753 67.473 76.7753 53.3061C76.7753 46.3376 73.8666 39.5901 68.8177 34.8022C65.2396 31.3917 60.8435 29.1045 56.0837 28.137Z" fill="white"/>
</g>
</svg>
