<svg width="248" height="32" viewBox="0 0 248 32" fill="none" xmlns="http://www.w3.org/2000/svg">
<path d="M13.076 15.116L19.124 0.139998H25.532V23H20.636V8.888L14.984 23H11.168L5.516 8.888V23H0.62V0.139998H7.028L13.076 15.116ZM37.0233 5.252C42.0633 5.252 46.1313 9.32 46.1313 14.36C46.1313 19.4 42.0633 23.504 37.0233 23.504C31.9833 23.504 27.9153 19.4 27.9153 14.36C27.9153 9.32 31.9833 5.252 37.0233 5.252ZM37.0233 18.572C39.3273 18.572 41.1993 16.7 41.1993 14.36C41.1993 12.056 39.3273 10.184 37.0233 10.184C34.7193 10.184 32.8113 12.056 32.8113 14.36C32.8113 16.7 34.7193 18.572 37.0233 18.572ZM59.6077 5.936H64.7197V22.964C64.7197 23.144 64.7197 23.324 64.7197 23.504C64.4677 27.824 60.7957 31.172 56.3677 31.172H54.0997V26.06H56.3677C58.0597 26.06 59.4997 24.764 59.6077 23.18C59.6077 23.144 59.6077 21.344 59.6077 21.344C56.9437 23.864 52.6237 23.684 49.9597 21.308C48.1237 19.688 47.2957 17.24 47.2957 14.828V5.936H52.4077V15.008C52.4077 16.988 54.0277 18.608 56.0077 18.608C57.8077 18.608 59.3197 16.88 59.5717 15.08C59.6077 14.864 59.6077 14.684 59.6077 14.504V5.936ZM84.768 14.468C84.768 14.684 84.768 14.9 84.732 15.08H71.232C71.556 17.24 73.392 18.932 75.66 18.932C76.956 18.932 78.144 18.356 78.936 17.456H84.264C83.04 21.02 79.656 23.576 75.66 23.576C70.62 23.576 66.552 19.508 66.552 14.468C66.552 9.428 70.62 5.36 75.66 5.36C80.7 5.36 84.768 9.428 84.768 14.468ZM71.628 12.596H79.692C78.972 11.084 77.424 10.04 75.66 10.04C73.86 10.04 72.348 11.084 71.628 12.596ZM100.877 7.628C102.713 9.248 103.541 11.696 103.541 14.072V23H98.4286V13.928C98.4286 11.948 96.8086 10.328 94.8286 10.328C92.8486 10.328 91.2286 12.452 91.2286 14.432V23H86.1166V5.936H91.2286V7.592C92.3806 6.476 93.8566 5.9 95.4046 5.756C97.3126 5.612 99.3286 6.26 100.877 7.628ZM120.599 7.628C122.435 9.248 123.263 11.696 123.263 14.072V23H118.151V13.928C118.151 11.948 116.531 10.328 114.551 10.328C112.571 10.328 110.951 12.452 110.951 14.432V23H105.839V5.936H110.951V7.592C112.103 6.476 113.579 5.9 115.127 5.756C117.035 5.612 119.051 6.26 120.599 7.628ZM142.6 14.468C142.6 14.684 142.6 14.9 142.564 15.08H129.064C129.388 17.24 131.224 18.932 133.492 18.932C134.788 18.932 135.976 18.356 136.768 17.456H142.096C140.872 21.02 137.488 23.576 133.492 23.576C128.452 23.576 124.384 19.508 124.384 14.468C124.384 9.428 128.452 5.36 133.492 5.36C138.532 5.36 142.6 9.428 142.6 14.468ZM129.46 12.596H137.524C136.804 11.084 135.256 10.04 133.492 10.04C131.692 10.04 130.18 11.084 129.46 12.596Z" fill="#264653"/>
<path d="M157.357 15.116L163.405 0.139998H169.813V23H164.917V8.888L159.265 23H155.449L149.797 8.888V23H144.901V0.139998H151.309L157.357 15.116ZM185.697 5.936H190.809V23H185.697V21.344C185.013 22.1 184.185 22.496 183.897 22.64C182.961 23 181.917 23.18 180.873 23.18C176.049 23.18 172.161 19.256 172.161 14.468C172.161 9.644 176.049 5.72 180.873 5.72C181.917 5.72 182.961 5.9 183.897 6.26C184.185 6.404 185.013 6.8 185.697 7.556V5.936ZM181.449 18.644C183.753 18.644 185.625 16.772 185.625 14.468C185.625 12.128 183.753 10.256 181.449 10.256C179.145 10.256 177.273 12.128 177.273 14.468C177.273 16.772 179.145 18.644 181.449 18.644ZM205.752 12.884H205.716C207.444 13.532 208.488 15.584 208.452 17.636C208.416 19.688 207.48 21.452 205.86 22.424C204.384 23.288 202.476 23.468 201.108 23.432C200.82 23.432 200.496 23.432 200.208 23.396C198.552 23.288 195.6 22.712 194.088 20.048C193.728 19.4 193.476 18.716 193.332 17.996C193.296 17.78 193.26 17.384 193.26 17.24H198.12C198.156 17.672 198.264 17.852 198.264 17.888C198.588 18.824 199.524 19.076 200.064 19.148C200.496 19.22 200.82 19.256 201.18 19.256C201.504 19.256 201.828 19.256 202.152 19.184C202.584 19.112 202.908 19.004 203.124 18.86C203.484 18.608 203.592 18.14 203.448 17.564C203.268 16.772 202.152 16.592 201.504 16.484C200.316 16.268 199.128 16.124 197.976 15.836C196.788 15.584 195.6 15.116 194.664 14.324C192.468 12.416 192.972 8.888 194.952 7.016C196.212 5.828 198.084 5.252 200.676 5.288C204.168 5.324 206.004 6.692 206.94 7.844C207.624 8.672 207.948 9.536 208.056 10.004L203.736 11.228C203.772 11.228 203.52 10.688 203.484 10.652C203.34 10.328 203.088 10.04 202.8 9.86C201.828 9.176 199.956 9.032 198.876 9.572C198.444 9.824 198.048 10.4 198.3 10.904C198.48 11.3 198.948 11.444 199.344 11.516C201.504 11.912 203.7 12.092 205.752 12.884ZM218.454 9.356H216.546V17.672C216.546 18.716 217.41 19.58 218.454 19.58V23H216.366C213.63 23 211.434 20.804 211.434 18.104V9.356H209.598V5.936H211.434V0.176H216.546V5.936H218.454V9.356ZM237.663 14.468C237.663 14.684 237.663 14.9 237.627 15.08H224.127C224.451 17.24 226.287 18.932 228.555 18.932C229.851 18.932 231.039 18.356 231.831 17.456H237.159C235.935 21.02 232.551 23.576 228.555 23.576C223.515 23.576 219.447 19.508 219.447 14.468C219.447 9.428 223.515 5.36 228.555 5.36C233.595 5.36 237.663 9.428 237.663 14.468ZM224.523 12.596H232.587C231.867 11.084 230.319 10.04 228.555 10.04C226.755 10.04 225.243 11.084 224.523 12.596ZM244.932 7.376C245.544 6.512 246.408 5.756 247.812 5.252V10.796C246.408 11.084 245.292 12.2 245.004 13.604C244.968 13.784 244.932 13.964 244.932 14.144C244.932 14.216 244.932 23.036 244.932 23.036H239.82V5.936H244.932V7.376Z" fill="#2A9D8F"/>
</svg>
