<svg width="70" height="70" viewBox="0 0 70 70" fill="none" xmlns="http://www.w3.org/2000/svg">
<path d="M43.75 23.3333H43.7792M36.4583 61.25H17.5C15.1794 61.25 12.9538 60.3281 11.3128 58.6872C9.67187 57.0462 8.75 54.8206 8.75 52.5V17.5C8.75 15.1794 9.67187 12.9538 11.3128 11.3128C12.9538 9.67187 15.1794 8.75 17.5 8.75H52.5C54.8206 8.75 57.0462 9.67187 58.6872 11.3128C60.3281 12.9538 61.25 15.1794 61.25 17.5V36.4583" stroke="#BBBBBB" stroke-width="2.5" stroke-linecap="round" stroke-linejoin="round"/>
<path d="M8.75 46.6667L23.3333 32.0833C26.04 29.4787 29.3767 29.4787 32.0833 32.0833L43.75 43.75" stroke="#BBBBBB" stroke-width="2.5" stroke-linecap="round" stroke-linejoin="round"/>
<path d="M40.8334 40.8333L43.75 37.9167C45.7042 36.0383 47.9792 35.5133 50.1142 36.3417M46.6667 55.4167H64.1667M55.4167 46.6667V64.1667" stroke="#BBBBBB" stroke-width="2.5" stroke-linecap="round" stroke-linejoin="round"/>
</svg>
